<svg width="834" height="116" viewBox="0 0 834 116" fill="none" xmlns="http://www.w3.org/2000/svg">
<path d="M347.499 8.81293C347.499 6.4756 348.431 4.23399 350.09 2.58125C351.749 0.928502 353.999 0 356.345 0C358.691 0 360.941 0.928502 362.599 2.58125C364.258 4.23399 365.19 6.4756 365.19 8.81293C365.19 11.1503 364.258 13.3919 362.599 15.0446C360.941 16.6974 358.691 17.6259 356.345 17.6259C353.999 17.6259 351.749 16.6974 350.09 15.0446C348.431 13.3919 347.499 11.1503 347.499 8.81293ZM341.326 36.592C341.141 36.6655 340.975 36.7389 340.791 36.8123L339.317 37.455C336.295 38.7953 333.973 41.3473 332.922 44.4686L332.443 45.9007C331.411 48.9852 328.076 50.6376 324.98 49.6095C321.884 48.5813 320.225 45.2581 321.257 42.1735L321.736 40.7414C323.837 34.4806 328.481 29.3764 334.526 26.6958L336 26.0532C339.833 24.3641 343.979 23.4828 348.181 23.4828C356.4 23.4828 363.808 28.4033 366.959 35.9494L369.797 42.7243L373.741 44.6889C376.653 46.1394 377.832 49.6645 376.376 52.5655C374.92 55.4664 371.382 56.6414 368.471 55.191L363.532 52.7491C361.634 51.7943 360.141 50.2153 359.33 48.2508L357.561 44.0279L354.004 56.0539L363.126 65.9684C364.121 67.0517 364.822 68.3553 365.19 69.7874L369.429 86.6972C370.221 89.8368 368.305 93.0315 365.135 93.821C361.965 94.6105 358.777 92.701 357.985 89.543L353.931 73.3676L340.902 59.2119C338.174 56.2559 337.161 52.1248 338.193 48.2508L341.307 36.592H341.326ZM330.674 73.0739L335.281 61.6171C335.668 62.1679 336.11 62.682 336.571 63.1961L344.071 71.348L341.399 77.9944C340.957 79.096 340.294 80.1059 339.446 80.9504L328.076 92.2787C325.772 94.5738 322.031 94.5738 319.728 92.2787C317.424 89.9837 317.424 86.2565 319.728 83.9615L330.674 73.0739Z" fill="black"/>
<path d="M8.45455 23.1818H18.5455L42.2727 81.1364H43.0909L66.8182 23.1818H76.9091V93H69V39.9545H68.3182L46.5 93H38.8636L17.0455 39.9545H16.3636V93H8.45455V23.1818ZM102.315 23.1818V93H93.8608V23.1818H102.315ZM122.131 93H113.267L138.903 23.1818H147.631L173.267 93H164.403L143.54 34.2273H142.994L122.131 93ZM125.403 65.7273H161.131V73.2273H125.403V65.7273ZM184.142 23.1818H194.233L217.96 81.1364H218.778L242.506 23.1818H252.597V93H244.688V39.9545H244.006L222.188 93H214.551L192.733 39.9545H192.051V93H184.142V23.1818ZM278.003 23.1818V93H269.548V23.1818H278.003Z" fill="black"/>
<path d="M418.136 93L399.045 23.1818H407.636L422.227 80.0455H422.909L437.773 23.1818H447.318L462.182 80.0455H462.864L477.455 23.1818H486.045L466.955 93H458.227L442.818 37.3636H442.273L426.864 93H418.136ZM494.006 93H485.142L510.778 23.1818H519.506L545.142 93H536.278L515.415 34.2273H514.869L494.006 93ZM497.278 65.7273H533.006V73.2273H497.278V65.7273ZM556.017 93V23.1818H564.472V85.5H596.926V93H556.017ZM610.017 93V23.1818H618.472V57.8182H619.29L650.653 23.1818H661.699L632.381 54.6818L661.699 93H651.472L627.199 60.5455L618.472 70.3636V93H610.017ZM681.097 23.1818V93H672.642V23.1818H681.097ZM753.412 23.1818V93H745.23L707.185 38.1818H706.503V93H698.048V23.1818H706.23L744.412 78.1364H745.094V23.1818H753.412ZM818.057 45C817.307 42.7045 816.318 40.6477 815.091 38.8295C813.886 36.9886 812.443 35.4205 810.761 34.125C809.102 32.8295 807.216 31.8409 805.102 31.1591C802.989 30.4773 800.67 30.1364 798.148 30.1364C794.011 30.1364 790.25 31.2045 786.864 33.3409C783.477 35.4773 780.784 38.625 778.784 42.7841C776.784 46.9432 775.784 52.0455 775.784 58.0909C775.784 64.1364 776.795 69.2386 778.818 73.3977C780.841 77.5568 783.58 80.7045 787.034 82.8409C790.489 84.9773 794.375 86.0455 798.693 86.0455C802.693 86.0455 806.216 85.1932 809.261 83.4886C812.33 81.7614 814.716 79.3295 816.42 76.1932C818.148 73.0341 819.011 69.3182 819.011 65.0455L821.602 65.5909H800.602V58.0909H827.193V65.5909C827.193 71.3409 825.966 76.3409 823.511 80.5909C821.08 84.8409 817.716 88.1364 813.42 90.4773C809.148 92.7955 804.239 93.9545 798.693 93.9545C792.511 93.9545 787.08 92.5 782.398 89.5909C777.739 86.6818 774.102 82.5455 771.489 77.1818C768.898 71.8182 767.602 65.4545 767.602 58.0909C767.602 52.5682 768.341 47.6023 769.818 43.1932C771.318 38.7614 773.432 34.9886 776.159 31.875C778.886 28.7614 782.114 26.375 785.841 24.7159C789.568 23.0568 793.67 22.2273 798.148 22.2273C801.83 22.2273 805.261 22.7841 808.443 23.8977C811.648 24.9886 814.5 26.5455 817 28.5682C819.523 30.5682 821.625 32.9659 823.307 35.7614C824.989 38.5341 826.148 41.6136 826.784 45H818.057Z" fill="black"/>
</svg>
